<?xml version="1.0" standalone="no"?><!DOCTYPE svg PUBLIC "-//W3C//DTD SVG 1.1//EN" "http://www.w3.org/Graphics/SVG/1.1/DTD/svg11.dtd"><svg t="1697528256560" class="icon" viewBox="0 0 1024 1024" version="1.1" xmlns="http://www.w3.org/2000/svg" p-id="4140" xmlns:xlink="http://www.w3.org/1999/xlink" width="200" height="200"><path d="M956.191638 315.331805c-7.715729-58.888202-37.58092-116.936269-84.093257-163.454746C817.422108 97.196693 747.167021 65.838497 679.354566 65.838497c-49.840128 0-94.978165 17.689894-127.09463 49.809429L115.675556 552.264029c-19.916609 19.912515-34.127262 44.204781-42.243103 72.190159-7.612375 26.269293-9.504468 54.602595-5.626137 84.216054 7.711636 58.886155 37.57785 116.933199 84.09428 163.453722 54.67525 54.67832 124.925221 86.037539 192.743816 86.037539 49.835012 0 94.971002-17.689894 127.09463-49.809429l436.586426-436.617126c19.915585-19.912515 34.124192-44.203758 42.24208-72.190159C958.181969 373.275495 960.072015 344.9381 956.191638 315.331805zM923.631058 385.715829c-7.100722 24.488741-19.534915 45.74281-36.96182 63.166645L504.656755 830.921563C476.54858 859.027691 402.237107 916.332838 358.631984 916.332838c-59.34255 0-133.413546-35.811624-181.254134-83.655282-40.700981-40.705074-64.34754-87.736227-69.712735-139.42547-4.02364-38.777165 1.13894-85.817528 27.885094-111.540376 18.377556-17.672498 40.122813-44.942585 57.548694-62.36642L575.11241 137.307226c28.101012-28.105105 67.597561-43.584658 111.206778-43.584658 59.33641 0 112.459305 35.811624 160.301939 83.655282 40.697911 40.705074 62.959937 87.900979 69.712735 139.426493C917.120784 321.866638 930.292781 362.729302 923.631058 385.715829zM176.442548 619.24249c-40.023552 40.027645-21.958104 122.984009 40.35101 185.296193 62.305021 62.310138 145.261385 80.375585 185.28596 40.34794l214.70192-214.715223L391.146515 404.526243 176.442548 619.24249zM399.256216 801.984511c-31.444153 31.416524-96.620571 17.238616-145.568377-31.66928-48.953945-48.909943-63.146179-114.022916-31.702026-145.440463l168.68077-168.531368 177.270403 177.110767L399.256216 801.984511z" fill="#2B2B2B" p-id="4141"></path></svg>